<svg width="200" height="76" viewBox="0 0 200 76" fill="none" xmlns="http://www.w3.org/2000/svg">
<path d="M46.8733 32.0091L51.5485 24.8134L43.7638 29.0651L38.098 0L32.5823 29.1418L25.2727 24.5709L29.5884 32.1932L0 37.7558L29.7103 43.1802L25.0289 50.3912L32.7823 46.1548L38.4387 75.18L43.9545 46.0412L51.3047 50.6337L46.9764 42.9837L76.5367 37.4242L46.8764 32.006L46.8733 32.0091ZM26.7727 26.5294L32.0729 31.742L29.9415 32.1319L26.7727 26.5294ZM27.0227 48.9177L32.3197 43.7235L32.7135 45.8079L27.0227 48.9177ZM32.2229 43.2999L29.8853 42.8732L1.90318 37.765H32.7385L32.7948 37.7681H37.8512L32.226 43.3029L32.2229 43.2999ZM38.0949 32.1595H38.0887L38.0918 37.1848L32.4604 31.6468L32.8979 29.3199L38.0918 1.87259V32.1595H38.0949ZM49.5515 26.293L44.2264 31.5148L43.8295 29.4151L49.5515 26.293ZM43.6357 45.8724L38.4418 73.3166V43.0758L38.4856 43.0512V38.0535L43.8357 43.2968L44.0764 43.5332L43.6357 45.8724ZM49.8015 48.6843L44.4764 43.4442L46.6171 43.0543L49.8015 48.6843ZM43.7951 37.4273H38.6856L44.3295 31.8924L46.6952 32.3252H46.6983L74.6335 37.4242H43.7951V37.4273Z" fill="white"/>
<path d="M106.063 37.7871L102.603 14.1924H101.969L92.5436 33.0595L83.0745 14.2876L83.0245 14.1924H82.3839L78.9463 37.7871H81.5807L83.8496 21.428L92.1186 37.7871H92.9405L101.109 21.5538L103.391 37.7871H106.063Z" fill="white"/>
<path d="M111.244 20.4697H108.644V38.0107H111.244V20.4697Z" fill="white"/>
<path d="M111.372 16.7921C111.769 16.4023 111.969 15.9295 111.969 15.3923C111.969 14.8551 111.769 14.3639 111.372 13.974C110.978 13.5842 110.494 13.3877 109.935 13.3877C109.375 13.3877 108.91 13.5842 108.513 13.974C108.119 14.3639 107.919 14.8428 107.919 15.3923C107.919 15.9418 108.119 16.4023 108.513 16.7921C108.91 17.182 109.385 17.3785 109.935 17.3785C110.485 17.3785 110.978 17.182 111.372 16.7921Z" fill="white"/>
<path d="M118.182 31.3058C118.182 29.0648 118.285 27.5023 118.497 26.6704C118.832 25.4025 119.529 24.3281 120.576 23.4685C121.619 22.612 122.813 22.1792 124.129 22.1792C125.276 22.1792 126.213 22.4524 126.919 23.0019C127.626 23.5483 128.11 24.3833 128.363 25.4762C128.526 26.127 128.607 27.447 128.607 29.4056V37.7801H131.207V28.7578C131.207 26.4033 130.96 24.6443 130.47 23.5176C129.976 22.3849 129.201 21.4731 128.16 20.8008C127.119 20.1316 125.916 19.7939 124.582 19.7939C123.248 19.7939 122.041 20.0948 120.926 20.6934C119.938 21.2214 119.019 21.995 118.188 22.9988V20.2391H115.588V37.7801H118.188V31.2996L118.182 31.3058Z" fill="white"/>
<path d="M146.88 37.3559C147.945 36.8401 148.93 36.0911 149.811 35.118V37.7856H152.377V13.6016H149.811V23.0689C148.989 22.0497 148.042 21.2608 146.998 20.7236C145.814 20.1096 144.476 19.8026 143.014 19.8026C140.486 19.8026 138.295 20.7082 136.501 22.4948C134.707 24.2784 133.795 26.458 133.795 28.9691C133.795 31.4802 134.695 33.7396 136.476 35.5293C138.254 37.3221 140.433 38.2308 142.948 38.2308C144.364 38.2308 145.686 37.9361 146.88 37.3559ZM137.354 32.4288C136.739 31.3574 136.426 30.2155 136.426 29.0366C136.426 27.8578 136.736 26.7097 137.345 25.6445C137.958 24.5793 138.786 23.7473 139.814 23.1579C140.845 22.5685 141.986 22.2738 143.201 22.2738C145.095 22.2738 146.711 22.9277 148.008 24.2262C149.305 25.5248 149.961 27.164 149.961 29.098C149.961 30.3689 149.667 31.5263 149.092 32.5362C148.517 33.5462 147.68 34.3566 146.611 34.9491C145.536 35.5416 144.386 35.8455 143.189 35.8455C141.992 35.8455 140.876 35.5447 139.845 34.943C138.811 34.3474 137.973 33.4971 137.361 32.4227" fill="white"/>
<path d="M163.064 33.6602L157.045 20.417H154.664L161.855 36.3156L158.483 43.9104H160.864L171.308 20.417H168.908L163.064 33.6602Z" fill="white"/>
<path d="M183.109 20.559C182.403 20.1691 181.734 19.9727 181.115 19.9727C180.29 19.9727 179.496 20.2182 178.734 20.7094C177.971 21.1975 177.246 21.9404 176.559 22.932V20.4209H174.259V37.6211H176.559V31.8038C176.559 28.8199 176.699 26.8399 176.981 25.8606C177.343 24.5866 177.875 23.6442 178.571 23.0363C179.268 22.4316 179.993 22.1277 180.746 22.1277C181.068 22.1277 181.465 22.229 181.937 22.4285L183.112 20.5621L183.109 20.559Z" fill="white"/>
<path d="M197.781 20.5828V23.7417C196.9 22.5414 195.878 21.6388 194.716 21.0402C193.553 20.4385 192.25 20.1377 190.812 20.1377C188.325 20.1377 186.194 21.0187 184.422 22.7777C182.65 24.5368 181.762 26.658 181.762 29.1323C181.762 31.6066 182.643 33.8107 184.397 35.5789C186.15 37.341 188.266 38.2282 190.744 38.2282C192.141 38.2282 193.425 37.9427 194.6 37.3748C195.778 36.8038 196.838 35.9565 197.778 34.8299V37.7861H200V20.5859H197.778L197.781 20.5828ZM197.035 32.7915C196.438 33.8322 195.588 34.661 194.484 35.2689C193.384 35.8798 192.213 36.1837 190.981 36.1837C189.75 36.1837 188.612 35.8736 187.55 35.2627C186.484 34.6457 185.634 33.7831 185 32.6779C184.369 31.5728 184.053 30.4124 184.053 29.2029C184.053 27.9934 184.362 26.8268 184.994 25.7309C185.622 24.635 186.462 23.7846 187.528 23.1768C188.587 22.5721 189.744 22.2712 191 22.2712C192.95 22.2712 194.594 22.9404 195.925 24.2758C197.263 25.6112 197.928 27.275 197.928 29.2673C197.928 30.572 197.631 31.7447 197.038 32.7915" fill="white"/>
<path d="M82.562 41.3896H81.4182L80.0526 43.0903V41.3896H79.0869V46.3198H80.0526V44.131L81.5995 46.3198H82.737L80.8088 43.5907L82.562 41.3896Z" fill="white"/>
<path d="M86.4842 44.6345L84.3341 41.3896H83.4185V46.3198H84.3747V43.0873L86.5185 46.3198H87.4373V41.3896H86.4842V44.6345Z" fill="white"/>
<path d="M90.9559 41.2637C90.4872 41.2637 90.0528 41.3803 89.6434 41.6136C89.2371 41.8439 88.9184 42.157 88.684 42.553C88.4527 42.949 88.334 43.3818 88.334 43.8515C88.334 44.5576 88.5871 45.1623 89.084 45.675C89.5809 46.1877 90.209 46.4455 90.9622 46.4455C91.7153 46.4455 92.2935 46.1938 92.7997 45.6965C93.3029 45.1992 93.556 44.5914 93.556 43.87C93.556 43.1485 93.2998 42.5315 92.7904 42.025C92.281 41.5185 91.6685 41.2637 90.9591 41.2637M92.1247 45.0518C91.8028 45.3742 91.4184 45.5369 90.9653 45.5369C90.5653 45.5369 90.209 45.411 89.8997 45.1654C89.5028 44.8462 89.3028 44.4164 89.3028 43.87C89.3028 43.3818 89.4621 42.9797 89.7778 42.6604C90.0903 42.3442 90.484 42.1846 90.9466 42.1846C91.4091 42.1846 91.7997 42.3473 92.1216 42.6727C92.4435 42.9981 92.5997 43.3941 92.5997 43.8638C92.5997 44.3335 92.4404 44.7356 92.1247 45.0549" fill="white"/>
<path d="M98.3409 44.5362L97.4315 41.3896H96.6378L95.7377 44.5362L95.0127 41.3896H94.0752L95.2096 46.3198H96.119L97.0253 43.1333L97.9503 46.3198H98.866L99.9972 41.3896H99.0597L98.3409 44.5362Z" fill="white"/>
<path d="M106.585 44.5362L105.675 41.3896H104.878L103.985 44.5362L103.259 41.3896H102.319L103.456 46.3198H104.363L105.269 43.1333L106.194 46.3198H107.113L108.244 41.3896H107.303L106.585 44.5362Z" fill="white"/>
<path d="M111.632 43.253H109.953V41.3896H108.988V46.3198H109.953V44.1617H111.632V46.3198H112.594V41.3896H111.632V43.253Z" fill="white"/>
<path d="M113.748 46.3198H116.488V45.3988H114.691V44.1034H116.488V43.2009H114.691V42.3106H116.488V41.3896H113.748V46.3198Z" fill="white"/>
<path d="M120.185 43.6368C120.345 43.4157 120.42 43.1487 120.42 42.8233C120.42 42.5132 120.351 42.2461 120.207 42.022C120.066 41.7949 119.876 41.6352 119.641 41.537C119.407 41.4388 119.01 41.3896 118.457 41.3896H117.441V46.3198H118.398V44.2323H118.488L119.616 46.3198H120.657L119.47 44.1279C119.788 44.0174 120.026 43.8517 120.185 43.6337M119.326 43.2009C119.213 43.2776 119.001 43.3175 118.698 43.3175H118.398V42.3075H118.66C118.916 42.3075 119.088 42.3229 119.185 42.3597C119.279 42.3935 119.354 42.4518 119.413 42.5316C119.47 42.6084 119.501 42.7035 119.501 42.8141C119.501 42.9921 119.441 43.121 119.329 43.2039" fill="white"/>
<path d="M121.435 46.3198H124.176V45.3988H122.382V44.1034H124.176V43.2009H122.382V42.3106H124.176V41.3896H121.435V46.3198Z" fill="white"/>
<path d="M126.526 42.3167H127.417V46.3198H128.385V42.3167H129.301V41.3896H126.526V42.3167Z" fill="white"/>
<path d="M132.323 41.2637C131.854 41.2637 131.42 41.3803 131.011 41.6136C130.604 41.8439 130.286 42.157 130.051 42.553C129.82 42.949 129.701 43.3818 129.701 43.8515C129.701 44.5576 129.954 45.1623 130.451 45.675C130.951 46.1877 131.576 46.4455 132.329 46.4455C133.083 46.4455 133.661 46.1938 134.167 45.6965C134.67 45.1992 134.923 44.5914 134.923 43.87C134.923 43.1485 134.667 42.5315 134.158 42.025C133.648 41.5185 133.036 41.2637 132.326 41.2637M133.492 45.0518C133.17 45.3742 132.789 45.5369 132.332 45.5369C131.932 45.5369 131.576 45.411 131.267 45.1654C130.87 44.8462 130.67 44.4164 130.67 43.87C130.67 43.3818 130.829 42.9797 131.145 42.6604C131.457 42.3442 131.851 42.1846 132.314 42.1846C132.776 42.1846 133.167 42.3473 133.489 42.6727C133.811 42.9981 133.967 43.3941 133.967 43.8638C133.967 44.3335 133.808 44.7356 133.492 45.0549" fill="white"/>
<path d="M137.286 42.3167H138.176V46.3198H139.145V42.3167H140.061V41.3896H137.286V42.3167Z" fill="white"/>
<path d="M143.12 44.4634C143.12 44.7919 143.095 45.0159 143.048 45.1357C143.005 45.2523 142.92 45.3506 142.795 45.4242C142.673 45.501 142.53 45.5409 142.361 45.5409C142.201 45.5409 142.067 45.5071 141.955 45.4396C141.839 45.372 141.761 45.28 141.714 45.1633C141.667 45.0466 141.642 44.8532 141.642 44.58V41.3936H140.683V44.3345C140.683 44.9208 140.742 45.3383 140.854 45.5869C140.973 45.8356 141.164 46.0413 141.436 46.204C141.705 46.3667 142.023 46.4526 142.386 46.4526C142.667 46.4526 142.908 46.4096 143.117 46.3237C143.323 46.2347 143.511 46.1027 143.67 45.9246C143.833 45.7496 143.939 45.5624 143.998 45.369C144.055 45.1787 144.083 44.8348 144.083 44.3375V41.3966H143.126V44.4695L143.12 44.4634Z" fill="white"/>
<path d="M147.995 43.6368C148.155 43.4157 148.233 43.1487 148.233 42.8233C148.233 42.5132 148.161 42.2461 148.014 42.022C147.873 41.7949 147.683 41.6352 147.448 41.537C147.214 41.4388 146.817 41.3896 146.264 41.3896H145.251V46.3198H146.205V44.2323H146.295L147.423 46.3198H148.467L147.28 44.1279C147.598 44.0174 147.836 43.8517 147.995 43.6337M147.136 43.2009C147.023 43.2776 146.811 43.3175 146.508 43.3175H146.208V42.3075H146.47C146.727 42.3075 146.898 42.3229 146.995 42.3597C147.092 42.3935 147.167 42.4518 147.223 42.5316C147.283 42.6084 147.311 42.7035 147.311 42.8141C147.311 42.9921 147.252 43.121 147.139 43.2039" fill="white"/>
<path d="M152.311 44.6345L150.164 41.3896H149.246V46.3198H150.202V43.0873L152.349 46.3198H153.268V41.3896H152.311V44.6345Z" fill="white"/>
</svg>
