<svg xmlns="http://www.w3.org/2000/svg" version="1.1" xmlns:xlink="http://www.w3.org/1999/xlink" xmlns:svgjs="http://svgjs.dev/svgjs" width="2000" height="650" viewBox="0 0 2000 650"><g transform="matrix(1,0,0,1,-0.8145281868162328,-4.096666666666692)"><svg viewBox="0 0 240 78" data-background-color="#ffffff" preserveAspectRatio="xMidYMid meet" height="650" width="2000" xmlns="http://www.w3.org/2000/svg" xmlns:xlink="http://www.w3.org/1999/xlink"><g id="tight-bounds" transform="matrix(1,0,0,1,0.09774338241794567,0.49160000000000537)"><svg viewBox="0 0 239.36511900183726 77.0168" height="77.0168" width="239.36511900183726"><g><svg viewBox="0 0 239.36511900183726 77.0168" height="77.0168" width="239.36511900183726"><g><svg viewBox="0 0 239.36511900183726 77.0168" height="77.0168" width="239.36511900183726"><g id="textblocktransform"><svg viewBox="0 0 239.36511900183726 77.0168" height="77.0168" width="239.36511900183726" id="textblock"><g><svg viewBox="0 0 239.36511900183726 77.0168" height="77.0168" width="239.36511900183726"><g><svg><g></g><g></g></svg></g><g><svg><g><svg></svg></g><g></g></svg></g><g id="text-0"><svg viewBox="0 0 239.36511900183726 77.0168" height="77.0168" width="239.36511900183726"><g transform="matrix(1,0,0,1,0,0)"><svg width="144.1638" viewBox="4.25 -37 89.09 47.6" height="77.0168" data-palette-color="#004e8c"><path d="M12.05 0L8.5 0Q6.4 0 5.33-1.18 4.25-2.35 4.25-4.15L4.25-4.15 4.25-37 8.25-37 8.25-3.5 12.05-3.5 12.05 0ZM27.6 0.6L27.6 0.6Q25 0.6 22.85-0.35 20.7-1.3 19.17-3.08 17.65-4.85 16.8-7.33 15.95-9.8 15.95-12.9L15.95-12.9Q15.95-15.95 16.8-18.45 17.65-20.95 19.17-22.73 20.7-24.5 22.85-25.45 25-26.4 27.6-26.4L27.6-26.4Q30.2-26.4 32.32-25.45 34.45-24.5 36-22.73 37.55-20.95 38.4-18.45 39.25-15.95 39.25-12.9L39.25-12.9Q39.25-9.8 38.4-7.33 37.55-4.85 36-3.08 34.45-1.3 32.32-0.35 30.2 0.6 27.6 0.6ZM27.6-2.95L27.6-2.95Q30.85-2.95 32.9-4.95 34.95-6.95 34.95-11.05L34.95-11.05 34.95-14.75Q34.95-18.85 32.9-20.85 30.85-22.85 27.6-22.85L27.6-22.85Q24.35-22.85 22.3-20.85 20.25-18.85 20.25-14.75L20.25-14.75 20.25-11.05Q20.25-6.95 22.3-4.95 24.35-2.95 27.6-2.95ZM67.59 2.85L67.59 2.85Q67.59 6.85 64.47 8.72 61.35 10.6 55.1 10.6L55.1 10.6Q49.05 10.6 46.4 8.95 43.75 7.3 43.75 4.25L43.75 4.25Q43.75 2.15 44.85 0.98 45.95-0.2 47.85-0.75L47.85-0.75 47.85-1.3Q45.55-2.4 45.55-4.9L45.55-4.9Q45.55-6.85 46.8-7.88 48.05-8.9 50-9.4L50-9.4 50-9.6Q47.7-10.7 46.42-12.75 45.15-14.8 45.15-17.5L45.15-17.5Q45.15-19.45 45.85-21.1 46.55-22.75 47.82-23.93 49.1-25.1 50.87-25.75 52.65-26.4 54.85-26.4L54.85-26.4Q57.6-26.4 59.75-25.4L59.75-25.4 59.75-25.85Q59.75-27.35 60.45-28.33 61.15-29.3 62.75-29.3L62.75-29.3 66.59-29.3 66.59-25.8 61.7-25.8 61.7-24.15Q63.1-22.95 63.87-21.28 64.65-19.6 64.65-17.5L64.65-17.5Q64.65-15.55 63.95-13.9 63.25-12.25 61.97-11.08 60.7-9.9 58.9-9.25 57.1-8.6 54.9-8.6L54.9-8.6Q53.65-8.6 52.4-8.85L52.4-8.85Q51.1-8.5 50.05-7.83 49-7.15 49-5.95L49-5.95Q49-4.8 50.1-4.4 51.2-4 52.95-4L52.95-4 58.45-4Q63.25-4 65.42-2.18 67.59-0.35 67.59 2.85ZM63.85 3.15L63.85 3.15Q63.85 1.6 62.67 0.68 61.5-0.25 58.5-0.25L58.5-0.25 49.9-0.25Q47.5 0.85 47.5 3.25L47.5 3.25Q47.5 4.95 48.77 6.15 50.05 7.35 53.1 7.35L53.1 7.35 56.8 7.35Q60.15 7.35 62 6.3 63.85 5.25 63.85 3.15ZM54.9-11.8L54.9-11.8Q57.45-11.8 58.95-13.03 60.45-14.25 60.45-16.8L60.45-16.8 60.45-18.2Q60.45-20.75 58.95-21.98 57.45-23.2 54.9-23.2L54.9-23.2Q52.35-23.2 50.85-21.98 49.35-20.75 49.35-18.2L49.35-18.2 49.35-16.8Q49.35-14.25 50.85-13.03 52.35-11.8 54.9-11.8ZM81.69 0.6L81.69 0.6Q79.09 0.6 76.94-0.35 74.79-1.3 73.27-3.08 71.74-4.85 70.89-7.33 70.04-9.8 70.04-12.9L70.04-12.9Q70.04-15.95 70.89-18.45 71.74-20.95 73.27-22.73 74.79-24.5 76.94-25.45 79.09-26.4 81.69-26.4L81.69-26.4Q84.29-26.4 86.42-25.45 88.54-24.5 90.09-22.73 91.64-20.95 92.49-18.45 93.34-15.95 93.34-12.9L93.34-12.9Q93.34-9.8 92.49-7.33 91.64-4.85 90.09-3.08 88.54-1.3 86.42-0.35 84.29 0.6 81.69 0.6ZM81.69-2.95L81.69-2.95Q84.94-2.95 86.99-4.95 89.04-6.95 89.04-11.05L89.04-11.05 89.04-14.75Q89.04-18.85 86.99-20.85 84.94-22.85 81.69-22.85L81.69-22.85Q78.44-22.85 76.39-20.85 74.34-18.85 74.34-14.75L74.34-14.75 74.34-11.05Q74.34-6.95 76.39-4.95 78.44-2.95 81.69-2.95Z" opacity="1" transform="matrix(1,0,0,1,0,0)" fill="#004e8c" class="wordmark-text-0" data-fill-palette-color="primary"></path></svg></g><g><svg xmlns="http://www.w3.org/2000/svg" xmlns:xlink="http://www.w3.org/1999/xlink" version="1.1" x="162.347" y="0" viewBox="1.9993388738551918 2 60.00102756944244 60" style="enable-background:new 0 0 64 64;" xml:space="preserve" height="77.0168" width="77.01811900183725" class="icon-dxe-0" data-fill-palette-color="accent" id="dxe-0"><path d="M61.963 24.729A1 1 0 0 0 61.234 24.028L32.234 17.028A1 1 0 0 0 31.765 17.028L2.765 24.028A1 1 0 0 0 2.292 25.707L8.586 32 2.293 38.293A1 1 0 0 0 2.766 39.972L31.766 46.972A1 1 0 0 0 32.234 46.972L61.234 39.972A1 1 0 0 0 61.707 38.293L55.414 32 61.707 25.707C61.963 25.451 62.061 25.077 61.963 24.729M53.293 31.293A1 1 0 0 0 53.293 32.707L59.032 38.446 32 44.971 4.968 38.446 10.707 32.707A1 1 0 0 0 10.707 31.293L4.968 25.554 32 19.029 59.032 25.554z" fill="#004e8c" data-fill-palette-color="accent"></path><path d="M58.29 22.345L60.167 21.656C55.849 9.899 44.529 2 32 2S8.151 9.899 3.833 21.655L5.71 22.344C9.74 11.372 20.306 4 32 4S54.26 11.372 58.29 22.345" fill="#004e8c" data-fill-palette-color="accent"></path><path d="M5.71 41.655L3.833 42.344C8.151 54.101 19.471 62 32 62S55.849 54.101 60.167 42.345L58.29 41.656C54.26 52.628 43.694 60 32 60S9.74 52.628 5.71 41.655" fill="#004e8c" data-fill-palette-color="accent"></path><path d="M13.448 18.408L15.061 19.592C19.009 14.212 25.342 11 32 11S44.991 14.212 48.938 19.592L50.551 18.408C46.229 12.517 39.293 9 32 9S17.771 12.517 13.448 18.408" fill="#004e8c" data-fill-palette-color="accent"></path><path d="M50.552 45.592L48.939 44.408C44.991 49.788 38.658 53 32 53S19.009 49.788 15.062 44.408L13.449 45.592C17.771 51.483 24.707 55 32 55S46.229 51.483 50.552 45.592" fill="#004e8c" data-fill-palette-color="accent"></path><path d="M20 26H14A1 1 0 0 0 13 27V35A1 1 0 0 0 14 36H20A1 1 0 0 0 21 35V27A1 1 0 0 0 20 26M19 34H15V28H19z" fill="#004e8c" data-fill-palette-color="accent"></path><path d="M31 27A1 1 0 0 0 30 26H24A1 1 0 0 0 23 27V35A1 1 0 0 0 24 36H30A1 1 0 0 0 31 35zM29 34H25V28H29z" fill="#004e8c" data-fill-palette-color="accent"></path><path d="M34 36H40A1 1 0 0 0 41 35V27A1 1 0 0 0 40 26H34A1 1 0 0 0 33 27V35A1 1 0 0 0 34 36M35 28H39V34H35z" fill="#004e8c" data-fill-palette-color="accent"></path><path d="M44 36H50A1 1 0 0 0 51 35V27A1 1 0 0 0 50 26H44A1 1 0 0 0 43 27V35A1 1 0 0 0 44 36M45 28H49V34H45z" fill="#004e8c" data-fill-palette-color="accent"></path><rect x="27" y="38" width="2" height="2" fill="#004e8c" data-fill-palette-color="accent"></rect><rect x="31" y="38" width="2" height="2" fill="#004e8c" data-fill-palette-color="accent"></rect><rect x="35" y="38" width="2" height="2" fill="#004e8c" data-fill-palette-color="accent"></rect></svg></g></svg></g></svg></g></svg></g></svg></g></svg></g><defs></defs></svg><rect width="239.36511900183726" height="77.0168" fill="none" stroke="none" visibility="hidden"></rect></g></svg></g></svg>