<svg xmlns="http://www.w3.org/2000/svg" version="1.1" xmlns:xlink="http://www.w3.org/1999/xlink" xmlns:svgjs="http://svgjs.dev/svgjs" width="2000" height="2000" viewBox="0 0 2000 2000"><g transform="matrix(1,0,0,1,-0.28443113772425477,-0.28443113772459583)"><svg viewBox="0 0 334 334" data-background-color="#ffffff" preserveAspectRatio="xMidYMid meet" height="2000" width="2000" xmlns="http://www.w3.org/2000/svg" xmlns:xlink="http://www.w3.org/1999/xlink"><g id="tight-bounds" transform="matrix(1,0,0,1,0.04749999999998522,0.04750000000001364)"><svg viewBox="0 0 333.90454557049503 333.90454557049503" height="333.90454557049503" width="333.90454557049503"><g><svg></svg></g><g><svg viewBox="0 0 333.90454557049503 333.90454557049503" height="333.90454557049503" width="333.90454557049503"><g><path d="M0 166.952c0-92.205 74.747-166.952 166.952-166.952 92.205 0 166.952 74.747 166.953 166.952 0 92.205-74.747 166.952-166.953 166.953-92.205 0-166.952-74.747-166.952-166.953zM166.952 322.61c85.968 0 155.658-69.691 155.658-155.658 0-85.968-69.691-155.658-155.658-155.658-85.968 0-155.658 69.691-155.658 155.658 0 85.968 69.691 155.658 155.658 155.658z" data-fill-palette-color="tertiary" fill="#ffffff" stroke="transparent"></path><ellipse rx="160.27418187383762" ry="160.27418187383762" cx="166.95227278524752" cy="166.95227278524752" fill="#ffffff" stroke="transparent" stroke-width="0" fill-opacity="1" data-fill-palette-color="tertiary"></ellipse></g><g transform="matrix(1,0,0,1,137.2153998726876,71.17305217166896)"><svg viewBox="0 0 59.47374582511979 191.55844122715712" height="191.55844122715712" width="59.47374582511979"><g><svg viewBox="0 0 59.47374582511979 191.55844122715712" height="191.55844122715712" width="59.47374582511979"><g><svg viewBox="0 0 90.96839218093305 292.9992581661161" height="191.55844122715712" width="59.47374582511979"><g transform="matrix(1,0,0,1,0,101.44081693895896)"><svg viewBox="0 0 90.96839218093305 191.5584412271571" height="191.5584412271571" width="90.96839218093305"><g id="textblocktransform"><svg viewBox="0 0 90.96839218093305 191.5584412271571" height="191.5584412271571" width="90.96839218093305" id="textblock"><g><svg viewBox="0 0 90.96839218093305 191.5584412271571" height="191.5584412271571" width="90.96839218093305"><g transform="matrix(1,0,0,1,0,0)"><svg width="90.96839218093305" viewBox="2.7 -41.85 20.8 43.800000000000004" height="191.5584412271571" data-palette-color="#ffffff"><path d="M11.35 1.95Q7.7 1.95 5-3.9L5-3.9Q5-4.45 4.6-5.25L4.6-5.25Q4.35-5.85 4.35-5.9L4.35-5.9Q3.85-7.3 3.28-13.3 2.7-19.3 2.7-22.1L2.7-22.1Q2.7-28.95 3.55-33.2L3.55-33.2Q3.95-35.2 4.33-36.4 4.7-37.6 5.3-38.65L5.3-38.65Q5.95-39.8 6.83-40.45 7.7-41.1 9.05-41.5L9.05-41.5Q10.55-41.85 12.15-41.85L12.15-41.85Q13.75-41.85 15.18-41.35 16.6-40.85 17.6-40.05L17.6-40.05Q18.45-39.35 19.3-38.02 20.15-36.7 20.65-35.4L20.65-35.4Q21.05-34.4 21.5-32.58 21.95-30.75 22.15-29.55L22.15-29.55Q22.2-29.15 22.33-28.45 22.45-27.75 22.6-26.55L22.6-26.55 22.75-25.75Q23.5-20.35 23.5-19.15L23.5-19.15Q23.5-10.9 19.8-10.9L19.8-10.9Q19.05-10.9 18.35-11.45L18.35-11.45Q17.7-11.95 17.25-12.15L17.25-12.15Q16.6-10.6 15.23-9.55 13.85-8.5 12.35-8.5L12.35-8.5Q11.4-8.5 10.63-8.95 9.85-9.4 9.35-10.1L9.35-10.1Q8.4-11.35 7.85-13.9L7.85-13.9Q7.5-15.75 7.4-18.35L7.4-18.35Q7.35-18.95 7.35-20.4L7.35-20.4 7.35-21.65Q7.35-23.65 7.55-25.9L7.55-25.9Q7.75-28 8.4-29.9L8.4-29.9Q8.8-30.9 9.33-31.5 9.85-32.1 10.65-32.45L10.65-32.45Q11.45-32.85 12.45-32.85L12.45-32.85Q14.4-32.85 15.7-31.4L15.7-31.4Q15.95-31.1 16.3-29.45L16.3-29.45Q16.7-27.2 17.5-20.85L17.5-20.85 17.95-16.5Q18.15-14.25 18.25-13.85L18.25-13.85 18.8-13.6Q19.4-12.35 19.85-12.35L19.85-12.35Q21.8-12.35 21.8-19.45L21.8-19.45Q21.8-27.55 19-34.95L19-34.95Q17.85-37.9 16.25-39.15 14.65-40.4 11.9-40.4L11.9-40.4Q9.5-40.4 8-39.4L8-39.4Q6.8-38.6 6-36.7L6-36.7Q5.4-35.15 5.2-32.9L5.2-32.9 5.05-30.8 5-30.05 4.95-29.15Q4.95-28.85 4.9-28.4 4.85-27.95 4.75-27.55L4.75-27.55Q4.7-27.35 4.6-26.88 4.5-26.4 4.35-26.05L4.35-26.05 4.45-24.1Q4.45-23.1 4.25-22.5L4.25-22.5Q4.35-22.2 4.35-21.85L4.35-21.85Q4.35-19.45 4.55-17.75L4.55-17.75 4.8-15.45Q5.15-12.5 5.25-10.25L5.25-10.25Q5.4-7.95 5.55-7.03 5.7-6.1 6.25-4.6L6.25-4.6Q7-2.65 8.35-0.93 9.7 0.8 11.15 0.8L11.15 0.8Q13.85 0.8 15.9-0.13 17.95-1.05 20.05-3.15L20.05-3.15Q21-4.1 21.15-4.1L21.15-4.1 21.6-3.65Q21.25-2.45 20.03-1.33 18.8-0.2 17.2 0.5L17.2 0.5Q15.6 1.2 14.05 1.58 12.5 1.95 11.35 1.95L11.35 1.95ZM12.7-9.95Q13.5-9.95 14.33-10.85 15.15-11.75 15.7-13.05 16.25-14.35 16.25-15.3L16.25-15.3 16.25-19.05 16.25-20.1 16.15-21.1 16.05-22.15Q15.95-22.5 15.95-22.75 15.95-23 15.9-23.15L15.9-23.15Q15.75-24.7 15.55-25.15L15.55-25.15Q15.55-25.1 15.35-26.2L15.35-26.2Q15.2-27.1 15.15-27.2L15.15-27.2 15-28.2Q14.95-28.55 14.85-29.05 14.75-29.55 14.55-30.1L14.55-30.1Q14.35-30.6 14.1-30.85 13.85-31.1 13.45-31.3L13.45-31.3Q12.85-31.5 12.45-31.5L12.45-31.5Q11.65-31.5 11.03-30.98 10.4-30.45 10.1-29.65L10.1-29.65Q9.8-28.95 9.63-27.83 9.45-26.7 9.4-25.75L9.4-25.75 9.4-23.8 9.4-17.4Q9.4-15.75 9.47-14.73 9.55-13.7 9.85-12.55L9.85-12.55Q10.45-9.95 12.7-9.95L12.7-9.95Z" opacity="1" transform="matrix(1,0,0,1,0,0)" fill="#000000" class="wordmark-text-0" data-fill-palette-color="quaternary" id="text-0"></path></svg></g></svg></g></svg></g></svg></g><g transform="matrix(1,0,0,1,17.37496290655821,0)"><svg viewBox="0 0 56.21846636781663 56.21846636781663" height="56.21846636781663" width="56.21846636781663"><g><svg xmlns="http://www.w3.org/2000/svg" xmlns:xlink="http://www.w3.org/1999/xlink" version="1.1" x="0" y="0" viewBox="8.366525858755582 8.366525858755582 83.26764651460012 83.26764651460012" enable-background="new 0 0 100 100" xml:space="preserve" height="56.21846636781663" width="56.21846636781663" class="icon-icon-0" data-fill-palette-color="quaternary" id="icon-0"><path d="M88.492 50L90.203 47.037C93.149 41.935 91.401 35.411 86.299 32.465L83.336 30.754V27.332C83.336 21.441 78.56 16.665 72.669 16.665H69.247L67.536 13.702C64.59 8.6 58.066 6.852 52.964 9.798L50 11.508 47.037 9.797C41.935 6.852 35.411 8.6 32.465 13.702L30.754 16.665H27.332C21.441 16.665 16.665 21.441 16.665 27.332V30.754L13.702 32.465C8.6 35.411 6.852 41.935 9.798 47.037L11.508 50 9.797 52.963C6.852 58.065 8.6 64.589 13.702 67.535L16.665 69.246V72.668C16.665 78.559 21.441 83.335 27.332 83.335H30.754L32.465 86.298C35.411 91.4 41.935 93.148 47.037 90.202L50 88.492 52.963 90.203C58.065 93.149 64.589 91.401 67.535 86.299L69.246 83.336H72.668C78.559 83.336 83.335 78.56 83.335 72.669V69.247L86.298 67.536C91.4 64.59 93.148 58.066 90.202 52.964zM85.832 33.273A9.67 9.67 0 0 1 90.367 39.183 9.67 9.67 0 0 1 89.395 46.569L87.954 49.066 83.336 41.067V31.831zM73.72 73.72L58.682 82.402H41.318L26.28 73.72 17.598 58.682V41.318L26.28 26.28 41.318 17.598H58.682L73.72 26.28 82.402 41.318V58.682zM82.401 60.549V68.707L75.336 72.786zM72.786 75.336L68.707 82.401H60.549zM57.065 83.335L50 87.414 42.935 83.335zM39.451 82.401H31.293L27.214 75.336zM24.664 72.786L17.599 68.707V60.549zM16.665 57.065L12.586 50 16.665 42.935zM17.599 39.451V31.293L24.664 27.214zM27.214 24.664L31.293 17.599H39.451zM42.935 16.665L50 12.586 57.065 16.665zM60.549 17.599H68.707L72.786 24.664zM75.336 27.214L82.401 31.293V39.451zM83.335 42.935L87.414 50 83.335 57.065zM72.668 17.599A9.67 9.67 0 0 1 79.551 20.45 9.67 9.67 0 0 1 82.402 27.333V30.216L74.403 25.598 69.785 17.599zM53.43 10.606A9.67 9.67 0 0 1 60.816 9.634 9.67 9.67 0 0 1 66.726 14.169L68.167 16.666H58.931L50.932 12.048zM33.273 14.168A9.67 9.67 0 0 1 39.183 9.633 9.67 9.67 0 0 1 46.569 10.605L49.066 12.046 41.067 16.664H31.831zM17.599 27.332A9.67 9.67 0 0 1 20.45 20.449 9.67 9.67 0 0 1 27.333 17.598H30.216L25.598 25.597 17.599 30.215zM10.606 46.57A9.67 9.67 0 0 1 9.634 39.184 9.67 9.67 0 0 1 14.169 33.274L16.666 31.833V41.069L12.048 49.068zM14.168 66.727A9.67 9.67 0 0 1 9.633 60.817 9.67 9.67 0 0 1 10.605 53.431L12.046 50.934 16.664 58.933V68.169zM27.332 82.401A9.67 9.67 0 0 1 20.449 79.55 9.67 9.67 0 0 1 17.598 72.667V69.784L25.597 74.402 30.215 82.401zM46.57 89.394A9.67 9.67 0 0 1 39.184 90.366 9.67 9.67 0 0 1 33.274 85.831L31.833 83.334H41.069L49.068 87.952zM66.727 85.832A9.67 9.67 0 0 1 60.817 90.367 9.67 9.67 0 0 1 53.431 89.395L50.934 87.954 58.933 83.336H68.169zM82.401 72.668A9.67 9.67 0 0 1 79.55 79.551 9.67 9.67 0 0 1 72.667 82.402H69.784L74.402 74.403 82.401 69.785zM90.367 60.816A9.67 9.67 0 0 1 85.832 66.726L83.335 68.167V58.931L87.953 50.932 89.394 53.429A9.67 9.67 0 0 1 90.367 60.816" fill="#000000" data-fill-palette-color="quaternary"></path></svg></g></svg></g><g></g></svg></g></svg></g></svg></g></svg></g><defs></defs></svg><rect width="333.90454557049503" height="333.90454557049503" fill="none" stroke="none" visibility="hidden"></rect></g></svg></g></svg>